<svg width="152" height="51" viewBox="0 0 152 51" fill="none" xmlns="http://www.w3.org/2000/svg">
<g filter="url(#filter0_d_1_1591)">
<mask id="path-1-outside-1_1_1591" maskUnits="userSpaceOnUse" x="4.07202" y="0" width="144" height="43" fill="black">
<rect fill="white" x="4.07202" width="144" height="43"/>
<path d="M10.784 21.928C10.784 22.696 10.976 23.448 11.36 24.184C11.776 24.888 12.336 25.24 13.04 25.24C13.776 25.24 14.336 25.16 14.72 25C15.136 24.808 15.376 24.712 15.44 24.712C15.632 24.712 15.728 24.84 15.728 25.096C15.728 25.352 15.536 25.608 15.152 25.864C14.8 26.088 14.144 26.2 13.184 26.2C12.256 26.2 11.488 25.816 10.88 25.048C10.272 24.28 9.92002 23.432 9.82402 22.504V37H5.07202V14.776H9.82402V21.784C9.95202 19.768 10.944 18.024 12.8 16.552C14.656 15.048 16.592 14.296 18.608 14.296C20.656 14.296 22.112 14.92 22.976 16.168C23.872 17.384 24.432 19.144 24.656 21.448C24.784 19.528 25.776 17.864 27.632 16.456C29.52 15.016 31.456 14.296 33.44 14.296C35.552 14.296 37.104 15.032 38.096 16.504C39.12 17.944 39.632 21.032 39.632 25.768V37H34.832V27.016C34.832 23.24 34.624 20.424 34.208 18.568C33.824 16.712 33.072 15.784 31.952 15.784C30.544 15.784 29.136 16.44 27.728 17.752C26.32 19.064 25.616 20.456 25.616 21.928C25.616 22.696 25.808 23.448 26.192 24.184C26.608 24.888 27.264 25.24 28.16 25.24C28.704 25.24 29.168 25.16 29.552 25C29.968 24.808 30.208 24.712 30.272 24.712C30.464 24.712 30.56 24.84 30.56 25.096C30.56 25.352 30.368 25.608 29.984 25.864C29.632 26.088 29.008 26.2 28.112 26.2C27.248 26.2 26.512 25.896 25.904 25.288C25.296 24.648 24.912 23.832 24.752 22.84C24.784 23.448 24.8 24.424 24.8 25.768V37H20V27.016C20 23.24 19.792 20.424 19.376 18.568C18.992 16.712 18.24 15.784 17.12 15.784C15.712 15.784 14.304 16.44 12.896 17.752C11.488 19.064 10.784 20.456 10.784 21.928Z"/>
<path d="M52.3411 37.48C50.0371 37.48 47.9891 36.84 46.1971 35.56C44.4371 34.248 43.5571 32.44 43.5571 30.136C43.5571 28.792 43.8771 27.624 44.5171 26.632C45.1891 25.64 46.0371 24.904 47.0611 24.424C48.9491 23.464 50.7891 22.984 52.5811 22.984C54.3731 22.984 56.4051 23.464 58.6771 24.424C58.6451 20.712 58.1811 18.248 57.2851 17.032C56.4212 15.784 55.0771 15.16 53.2531 15.16C51.4291 15.16 49.8451 15.496 48.5011 16.168C47.1891 16.84 46.5331 17.736 46.5331 18.856C46.5331 19.24 46.3571 19.432 46.0051 19.432C45.6851 19.432 45.5251 19.256 45.5251 18.904C45.5251 17.56 46.2611 16.456 47.7331 15.592C49.2371 14.696 51.4451 14.248 54.3571 14.248C60.4371 14.248 63.4771 17.832 63.4771 25V37H58.6771V33.208C58.4531 34.456 57.7331 35.48 56.5171 36.28C55.3011 37.08 53.9091 37.48 52.3411 37.48ZM56.5651 28.504C57.7171 29.304 58.4211 30.408 58.6771 31.816V25.288C56.3731 24.36 54.4851 23.896 53.0131 23.896C51.5731 23.896 50.4371 24.504 49.6051 25.72C48.7731 26.936 48.3571 28.424 48.3571 30.184C48.3571 31.944 48.6931 33.448 49.3651 34.696C50.0691 35.912 51.1091 36.52 52.4851 36.52C53.8931 36.52 55.1251 36.168 56.1811 35.464C57.2371 34.728 57.7651 33.864 57.7651 32.872C57.7651 31.144 57.1891 29.96 56.0371 29.32C55.5571 29.032 55.3171 28.76 55.3171 28.504C55.3171 28.248 55.4291 28.12 55.6531 28.12C55.8771 28.12 56.1811 28.248 56.5651 28.504Z"/>
<path d="M85.0816 16.6C85.0816 16.952 84.9377 17.224 84.6497 17.416C84.3937 17.608 84.0576 17.704 83.6416 17.704C83.2256 17.704 82.8896 17.592 82.6336 17.368C82.3776 17.112 82.2016 16.84 82.1056 16.552C82.0416 16.264 81.8496 16.008 81.5296 15.784C81.2096 15.528 80.7616 15.4 80.1856 15.4C78.7776 15.4 77.4657 16.424 76.2496 18.472C75.0336 20.52 74.3297 22.84 74.1376 25.432V37H69.3376V14.776H74.1376V20.44C74.9056 18.584 75.8976 17.048 77.1136 15.832C78.3616 14.584 79.6096 13.96 80.8577 13.96C82.1057 13.96 83.1136 14.184 83.8816 14.632C84.6816 15.048 85.0816 15.704 85.0816 16.6Z"/>
<path d="M106.669 41.32C104.941 41.32 103.597 40.744 102.637 39.592C101.709 38.472 101.101 37.08 100.813 35.416C100.557 33.752 100.333 32.072 100.141 30.376C99.7253 26.184 98.4773 23.896 96.3973 23.512L92.6533 28.456V37H87.8533V1H92.6533V26.872L98.7013 18.856C99.9173 17.224 101.341 15.896 102.973 14.872C104.605 13.848 106.285 13.336 108.013 13.336C108.621 13.336 108.925 13.48 108.925 13.768C108.925 14.152 108.733 14.344 108.349 14.344C107.453 14.344 106.669 14.408 105.997 14.536C105.357 14.632 104.397 15.096 103.117 15.928C101.837 16.76 100.589 17.976 99.3733 19.576L97.0213 22.648C97.7253 22.584 98.1893 22.552 98.4133 22.552C100.045 22.552 101.357 23 102.349 23.896C103.373 24.76 104.029 25.848 104.317 27.16C104.637 28.472 104.877 29.912 105.037 31.48C105.229 33.016 105.341 34.44 105.373 35.752C105.437 37.064 105.677 38.152 106.093 39.016C106.509 39.912 107.101 40.36 107.869 40.36C108.637 40.36 109.309 40.136 109.885 39.688C110.461 39.272 110.909 38.84 111.229 38.392C111.549 37.976 111.773 37.768 111.901 37.768C112.029 37.768 112.093 37.832 112.093 37.96C112.093 38.12 112.045 38.296 111.949 38.488C110.989 40.376 109.229 41.32 106.669 41.32Z"/>
<path d="M117.436 35.32C117.884 35.64 118.444 35.912 119.116 36.136C119.82 36.36 120.668 36.472 121.66 36.472C122.652 36.472 123.708 36.248 124.828 35.8C125.948 35.32 126.732 34.616 127.18 33.688H128.572C127.324 36.216 124.7 37.48 120.7 37.48C117.628 37.48 115.02 36.392 112.876 34.216C110.764 32.008 109.708 29.256 109.708 25.96C109.708 22.632 110.828 19.864 113.068 17.656C115.308 15.416 117.74 14.296 120.364 14.296C123.02 14.296 125.1 15.032 126.604 16.504C128.14 17.944 128.908 19.656 128.908 21.64C128.908 23.624 128.092 25.384 126.46 26.92C124.828 28.456 122.684 29.224 120.028 29.224C117.372 29.224 115.516 28.088 114.46 25.816C114.492 26.04 114.524 26.52 114.556 27.256C114.62 27.992 114.668 28.568 114.7 28.984C114.732 29.4 114.812 29.976 114.94 30.712C115.1 31.448 115.26 32.04 115.42 32.488C115.612 32.936 115.884 33.448 116.236 34.024C116.588 34.568 116.988 35 117.436 35.32ZM124.78 21.4C124.78 17.272 123.212 15.208 120.076 15.208C118.54 15.208 117.276 15.96 116.284 17.464C115.324 18.936 114.78 20.728 114.652 22.84C115.036 21.944 115.612 21.224 116.38 20.68C117.18 20.136 117.996 19.864 118.828 19.864C119.692 19.864 120.124 20.024 120.124 20.344C120.124 20.632 119.932 20.776 119.548 20.776C118.076 20.872 116.988 21.24 116.284 21.88C115.612 22.52 115.276 23.384 115.276 24.472C115.276 25.56 115.66 26.488 116.428 27.256C117.228 27.992 118.156 28.36 119.212 28.36C120.94 28.36 122.3 27.672 123.292 26.296C124.284 24.888 124.78 23.256 124.78 21.4Z"/>
<path d="M130.438 15.736V14.776H134.854V8.2H139.654V14.776H144.694V15.736H139.654V30.568C139.654 34.536 140.518 36.52 142.246 36.52C142.918 36.52 143.542 36.312 144.118 35.896C144.694 35.448 145.142 35.016 145.462 34.6C145.782 34.152 146.006 33.928 146.134 33.928C146.262 33.928 146.326 34.008 146.326 34.168C146.326 34.296 146.278 34.456 146.182 34.648C145.222 36.536 143.462 37.48 140.902 37.48C138.854 37.48 137.334 36.696 136.342 35.128C135.35 33.56 134.854 31.464 134.854 28.84V15.736H130.438Z"/>
</mask>
<path d="M10.784 21.928C10.784 22.696 10.976 23.448 11.36 24.184C11.776 24.888 12.336 25.24 13.04 25.24C13.776 25.24 14.336 25.16 14.72 25C15.136 24.808 15.376 24.712 15.44 24.712C15.632 24.712 15.728 24.84 15.728 25.096C15.728 25.352 15.536 25.608 15.152 25.864C14.8 26.088 14.144 26.2 13.184 26.2C12.256 26.2 11.488 25.816 10.88 25.048C10.272 24.28 9.92002 23.432 9.82402 22.504V37H5.07202V14.776H9.82402V21.784C9.95202 19.768 10.944 18.024 12.8 16.552C14.656 15.048 16.592 14.296 18.608 14.296C20.656 14.296 22.112 14.92 22.976 16.168C23.872 17.384 24.432 19.144 24.656 21.448C24.784 19.528 25.776 17.864 27.632 16.456C29.52 15.016 31.456 14.296 33.44 14.296C35.552 14.296 37.104 15.032 38.096 16.504C39.12 17.944 39.632 21.032 39.632 25.768V37H34.832V27.016C34.832 23.24 34.624 20.424 34.208 18.568C33.824 16.712 33.072 15.784 31.952 15.784C30.544 15.784 29.136 16.44 27.728 17.752C26.32 19.064 25.616 20.456 25.616 21.928C25.616 22.696 25.808 23.448 26.192 24.184C26.608 24.888 27.264 25.24 28.16 25.24C28.704 25.24 29.168 25.16 29.552 25C29.968 24.808 30.208 24.712 30.272 24.712C30.464 24.712 30.56 24.84 30.56 25.096C30.56 25.352 30.368 25.608 29.984 25.864C29.632 26.088 29.008 26.2 28.112 26.2C27.248 26.2 26.512 25.896 25.904 25.288C25.296 24.648 24.912 23.832 24.752 22.84C24.784 23.448 24.8 24.424 24.8 25.768V37H20V27.016C20 23.24 19.792 20.424 19.376 18.568C18.992 16.712 18.24 15.784 17.12 15.784C15.712 15.784 14.304 16.44 12.896 17.752C11.488 19.064 10.784 20.456 10.784 21.928Z" fill="white"/>
<path d="M52.3411 37.48C50.0371 37.48 47.9891 36.84 46.1971 35.56C44.4371 34.248 43.5571 32.44 43.5571 30.136C43.5571 28.792 43.8771 27.624 44.5171 26.632C45.1891 25.64 46.0371 24.904 47.0611 24.424C48.9491 23.464 50.7891 22.984 52.5811 22.984C54.3731 22.984 56.4051 23.464 58.6771 24.424C58.6451 20.712 58.1811 18.248 57.2851 17.032C56.4212 15.784 55.0771 15.16 53.2531 15.16C51.4291 15.16 49.8451 15.496 48.5011 16.168C47.1891 16.84 46.5331 17.736 46.5331 18.856C46.5331 19.24 46.3571 19.432 46.0051 19.432C45.6851 19.432 45.5251 19.256 45.5251 18.904C45.5251 17.56 46.2611 16.456 47.7331 15.592C49.2371 14.696 51.4451 14.248 54.3571 14.248C60.4371 14.248 63.4771 17.832 63.4771 25V37H58.6771V33.208C58.4531 34.456 57.7331 35.48 56.5171 36.28C55.3011 37.08 53.9091 37.48 52.3411 37.48ZM56.5651 28.504C57.7171 29.304 58.4211 30.408 58.6771 31.816V25.288C56.3731 24.36 54.4851 23.896 53.0131 23.896C51.5731 23.896 50.4371 24.504 49.6051 25.72C48.7731 26.936 48.3571 28.424 48.3571 30.184C48.3571 31.944 48.6931 33.448 49.3651 34.696C50.0691 35.912 51.1091 36.52 52.4851 36.52C53.8931 36.52 55.1251 36.168 56.1811 35.464C57.2371 34.728 57.7651 33.864 57.7651 32.872C57.7651 31.144 57.1891 29.96 56.0371 29.32C55.5571 29.032 55.3171 28.76 55.3171 28.504C55.3171 28.248 55.4291 28.12 55.6531 28.12C55.8771 28.12 56.1811 28.248 56.5651 28.504Z" fill="white"/>
<path d="M85.0816 16.6C85.0816 16.952 84.9377 17.224 84.6497 17.416C84.3937 17.608 84.0576 17.704 83.6416 17.704C83.2256 17.704 82.8896 17.592 82.6336 17.368C82.3776 17.112 82.2016 16.84 82.1056 16.552C82.0416 16.264 81.8496 16.008 81.5296 15.784C81.2096 15.528 80.7616 15.4 80.1856 15.4C78.7776 15.4 77.4657 16.424 76.2496 18.472C75.0336 20.52 74.3297 22.84 74.1376 25.432V37H69.3376V14.776H74.1376V20.44C74.9056 18.584 75.8976 17.048 77.1136 15.832C78.3616 14.584 79.6096 13.96 80.8577 13.96C82.1057 13.96 83.1136 14.184 83.8816 14.632C84.6816 15.048 85.0816 15.704 85.0816 16.6Z" fill="white"/>
<path d="M106.669 41.32C104.941 41.32 103.597 40.744 102.637 39.592C101.709 38.472 101.101 37.08 100.813 35.416C100.557 33.752 100.333 32.072 100.141 30.376C99.7253 26.184 98.4773 23.896 96.3973 23.512L92.6533 28.456V37H87.8533V1H92.6533V26.872L98.7013 18.856C99.9173 17.224 101.341 15.896 102.973 14.872C104.605 13.848 106.285 13.336 108.013 13.336C108.621 13.336 108.925 13.48 108.925 13.768C108.925 14.152 108.733 14.344 108.349 14.344C107.453 14.344 106.669 14.408 105.997 14.536C105.357 14.632 104.397 15.096 103.117 15.928C101.837 16.76 100.589 17.976 99.3733 19.576L97.0213 22.648C97.7253 22.584 98.1893 22.552 98.4133 22.552C100.045 22.552 101.357 23 102.349 23.896C103.373 24.76 104.029 25.848 104.317 27.16C104.637 28.472 104.877 29.912 105.037 31.48C105.229 33.016 105.341 34.44 105.373 35.752C105.437 37.064 105.677 38.152 106.093 39.016C106.509 39.912 107.101 40.36 107.869 40.36C108.637 40.36 109.309 40.136 109.885 39.688C110.461 39.272 110.909 38.84 111.229 38.392C111.549 37.976 111.773 37.768 111.901 37.768C112.029 37.768 112.093 37.832 112.093 37.96C112.093 38.12 112.045 38.296 111.949 38.488C110.989 40.376 109.229 41.32 106.669 41.32Z" fill="white"/>
<path d="M117.436 35.32C117.884 35.64 118.444 35.912 119.116 36.136C119.82 36.36 120.668 36.472 121.66 36.472C122.652 36.472 123.708 36.248 124.828 35.8C125.948 35.32 126.732 34.616 127.18 33.688H128.572C127.324 36.216 124.7 37.48 120.7 37.48C117.628 37.48 115.02 36.392 112.876 34.216C110.764 32.008 109.708 29.256 109.708 25.96C109.708 22.632 110.828 19.864 113.068 17.656C115.308 15.416 117.74 14.296 120.364 14.296C123.02 14.296 125.1 15.032 126.604 16.504C128.14 17.944 128.908 19.656 128.908 21.64C128.908 23.624 128.092 25.384 126.46 26.92C124.828 28.456 122.684 29.224 120.028 29.224C117.372 29.224 115.516 28.088 114.46 25.816C114.492 26.04 114.524 26.52 114.556 27.256C114.62 27.992 114.668 28.568 114.7 28.984C114.732 29.4 114.812 29.976 114.94 30.712C115.1 31.448 115.26 32.04 115.42 32.488C115.612 32.936 115.884 33.448 116.236 34.024C116.588 34.568 116.988 35 117.436 35.32ZM124.78 21.4C124.78 17.272 123.212 15.208 120.076 15.208C118.54 15.208 117.276 15.96 116.284 17.464C115.324 18.936 114.78 20.728 114.652 22.84C115.036 21.944 115.612 21.224 116.38 20.68C117.18 20.136 117.996 19.864 118.828 19.864C119.692 19.864 120.124 20.024 120.124 20.344C120.124 20.632 119.932 20.776 119.548 20.776C118.076 20.872 116.988 21.24 116.284 21.88C115.612 22.52 115.276 23.384 115.276 24.472C115.276 25.56 115.66 26.488 116.428 27.256C117.228 27.992 118.156 28.36 119.212 28.36C120.94 28.36 122.3 27.672 123.292 26.296C124.284 24.888 124.78 23.256 124.78 21.4Z" fill="white"/>
<path d="M130.438 15.736V14.776H134.854V8.2H139.654V14.776H144.694V15.736H139.654V30.568C139.654 34.536 140.518 36.52 142.246 36.52C142.918 36.52 143.542 36.312 144.118 35.896C144.694 35.448 145.142 35.016 145.462 34.6C145.782 34.152 146.006 33.928 146.134 33.928C146.262 33.928 146.326 34.008 146.326 34.168C146.326 34.296 146.278 34.456 146.182 34.648C145.222 36.536 143.462 37.48 140.902 37.48C138.854 37.48 137.334 36.696 136.342 35.128C135.35 33.56 134.854 31.464 134.854 28.84V15.736H130.438Z" fill="white"/>
<path d="M10.784 21.928C10.784 22.696 10.976 23.448 11.36 24.184C11.776 24.888 12.336 25.24 13.04 25.24C13.776 25.24 14.336 25.16 14.72 25C15.136 24.808 15.376 24.712 15.44 24.712C15.632 24.712 15.728 24.84 15.728 25.096C15.728 25.352 15.536 25.608 15.152 25.864C14.8 26.088 14.144 26.2 13.184 26.2C12.256 26.2 11.488 25.816 10.88 25.048C10.272 24.28 9.92002 23.432 9.82402 22.504V37H5.07202V14.776H9.82402V21.784C9.95202 19.768 10.944 18.024 12.8 16.552C14.656 15.048 16.592 14.296 18.608 14.296C20.656 14.296 22.112 14.92 22.976 16.168C23.872 17.384 24.432 19.144 24.656 21.448C24.784 19.528 25.776 17.864 27.632 16.456C29.52 15.016 31.456 14.296 33.44 14.296C35.552 14.296 37.104 15.032 38.096 16.504C39.12 17.944 39.632 21.032 39.632 25.768V37H34.832V27.016C34.832 23.24 34.624 20.424 34.208 18.568C33.824 16.712 33.072 15.784 31.952 15.784C30.544 15.784 29.136 16.44 27.728 17.752C26.32 19.064 25.616 20.456 25.616 21.928C25.616 22.696 25.808 23.448 26.192 24.184C26.608 24.888 27.264 25.24 28.16 25.24C28.704 25.24 29.168 25.16 29.552 25C29.968 24.808 30.208 24.712 30.272 24.712C30.464 24.712 30.56 24.84 30.56 25.096C30.56 25.352 30.368 25.608 29.984 25.864C29.632 26.088 29.008 26.2 28.112 26.2C27.248 26.2 26.512 25.896 25.904 25.288C25.296 24.648 24.912 23.832 24.752 22.84C24.784 23.448 24.8 24.424 24.8 25.768V37H20V27.016C20 23.24 19.792 20.424 19.376 18.568C18.992 16.712 18.24 15.784 17.12 15.784C15.712 15.784 14.304 16.44 12.896 17.752C11.488 19.064 10.784 20.456 10.784 21.928Z" stroke="black" stroke-width="2" mask="url(#path-1-outside-1_1_1591)"/>
<path d="M52.3411 37.48C50.0371 37.48 47.9891 36.84 46.1971 35.56C44.4371 34.248 43.5571 32.44 43.5571 30.136C43.5571 28.792 43.8771 27.624 44.5171 26.632C45.1891 25.64 46.0371 24.904 47.0611 24.424C48.9491 23.464 50.7891 22.984 52.5811 22.984C54.3731 22.984 56.4051 23.464 58.6771 24.424C58.6451 20.712 58.1811 18.248 57.2851 17.032C56.4212 15.784 55.0771 15.16 53.2531 15.16C51.4291 15.16 49.8451 15.496 48.5011 16.168C47.1891 16.84 46.5331 17.736 46.5331 18.856C46.5331 19.24 46.3571 19.432 46.0051 19.432C45.6851 19.432 45.5251 19.256 45.5251 18.904C45.5251 17.56 46.2611 16.456 47.7331 15.592C49.2371 14.696 51.4451 14.248 54.3571 14.248C60.4371 14.248 63.4771 17.832 63.4771 25V37H58.6771V33.208C58.4531 34.456 57.7331 35.48 56.5171 36.28C55.3011 37.08 53.9091 37.48 52.3411 37.48ZM56.5651 28.504C57.7171 29.304 58.4211 30.408 58.6771 31.816V25.288C56.3731 24.36 54.4851 23.896 53.0131 23.896C51.5731 23.896 50.4371 24.504 49.6051 25.72C48.7731 26.936 48.3571 28.424 48.3571 30.184C48.3571 31.944 48.6931 33.448 49.3651 34.696C50.0691 35.912 51.1091 36.52 52.4851 36.52C53.8931 36.52 55.1251 36.168 56.1811 35.464C57.2371 34.728 57.7651 33.864 57.7651 32.872C57.7651 31.144 57.1891 29.96 56.0371 29.32C55.5571 29.032 55.3171 28.76 55.3171 28.504C55.3171 28.248 55.4291 28.12 55.6531 28.12C55.8771 28.12 56.1811 28.248 56.5651 28.504Z" stroke="black" stroke-width="2" mask="url(#path-1-outside-1_1_1591)"/>
<path d="M85.0816 16.6C85.0816 16.952 84.9377 17.224 84.6497 17.416C84.3937 17.608 84.0576 17.704 83.6416 17.704C83.2256 17.704 82.8896 17.592 82.6336 17.368C82.3776 17.112 82.2016 16.84 82.1056 16.552C82.0416 16.264 81.8496 16.008 81.5296 15.784C81.2096 15.528 80.7616 15.4 80.1856 15.4C78.7776 15.4 77.4657 16.424 76.2496 18.472C75.0336 20.52 74.3297 22.84 74.1376 25.432V37H69.3376V14.776H74.1376V20.44C74.9056 18.584 75.8976 17.048 77.1136 15.832C78.3616 14.584 79.6096 13.96 80.8577 13.96C82.1057 13.96 83.1136 14.184 83.8816 14.632C84.6816 15.048 85.0816 15.704 85.0816 16.6Z" stroke="black" stroke-width="2" mask="url(#path-1-outside-1_1_1591)"/>
<path d="M106.669 41.32C104.941 41.32 103.597 40.744 102.637 39.592C101.709 38.472 101.101 37.08 100.813 35.416C100.557 33.752 100.333 32.072 100.141 30.376C99.7253 26.184 98.4773 23.896 96.3973 23.512L92.6533 28.456V37H87.8533V1H92.6533V26.872L98.7013 18.856C99.9173 17.224 101.341 15.896 102.973 14.872C104.605 13.848 106.285 13.336 108.013 13.336C108.621 13.336 108.925 13.48 108.925 13.768C108.925 14.152 108.733 14.344 108.349 14.344C107.453 14.344 106.669 14.408 105.997 14.536C105.357 14.632 104.397 15.096 103.117 15.928C101.837 16.76 100.589 17.976 99.3733 19.576L97.0213 22.648C97.7253 22.584 98.1893 22.552 98.4133 22.552C100.045 22.552 101.357 23 102.349 23.896C103.373 24.76 104.029 25.848 104.317 27.16C104.637 28.472 104.877 29.912 105.037 31.48C105.229 33.016 105.341 34.44 105.373 35.752C105.437 37.064 105.677 38.152 106.093 39.016C106.509 39.912 107.101 40.36 107.869 40.36C108.637 40.36 109.309 40.136 109.885 39.688C110.461 39.272 110.909 38.84 111.229 38.392C111.549 37.976 111.773 37.768 111.901 37.768C112.029 37.768 112.093 37.832 112.093 37.96C112.093 38.12 112.045 38.296 111.949 38.488C110.989 40.376 109.229 41.32 106.669 41.32Z" stroke="black" stroke-width="2" mask="url(#path-1-outside-1_1_1591)"/>
<path d="M117.436 35.32C117.884 35.64 118.444 35.912 119.116 36.136C119.82 36.36 120.668 36.472 121.66 36.472C122.652 36.472 123.708 36.248 124.828 35.8C125.948 35.32 126.732 34.616 127.18 33.688H128.572C127.324 36.216 124.7 37.48 120.7 37.48C117.628 37.48 115.02 36.392 112.876 34.216C110.764 32.008 109.708 29.256 109.708 25.96C109.708 22.632 110.828 19.864 113.068 17.656C115.308 15.416 117.74 14.296 120.364 14.296C123.02 14.296 125.1 15.032 126.604 16.504C128.14 17.944 128.908 19.656 128.908 21.64C128.908 23.624 128.092 25.384 126.46 26.92C124.828 28.456 122.684 29.224 120.028 29.224C117.372 29.224 115.516 28.088 114.46 25.816C114.492 26.04 114.524 26.52 114.556 27.256C114.62 27.992 114.668 28.568 114.7 28.984C114.732 29.4 114.812 29.976 114.94 30.712C115.1 31.448 115.26 32.04 115.42 32.488C115.612 32.936 115.884 33.448 116.236 34.024C116.588 34.568 116.988 35 117.436 35.32ZM124.78 21.4C124.78 17.272 123.212 15.208 120.076 15.208C118.54 15.208 117.276 15.96 116.284 17.464C115.324 18.936 114.78 20.728 114.652 22.84C115.036 21.944 115.612 21.224 116.38 20.68C117.18 20.136 117.996 19.864 118.828 19.864C119.692 19.864 120.124 20.024 120.124 20.344C120.124 20.632 119.932 20.776 119.548 20.776C118.076 20.872 116.988 21.24 116.284 21.88C115.612 22.52 115.276 23.384 115.276 24.472C115.276 25.56 115.66 26.488 116.428 27.256C117.228 27.992 118.156 28.36 119.212 28.36C120.94 28.36 122.3 27.672 123.292 26.296C124.284 24.888 124.78 23.256 124.78 21.4Z" stroke="black" stroke-width="2" mask="url(#path-1-outside-1_1_1591)"/>
<path d="M130.438 15.736V14.776H134.854V8.2H139.654V14.776H144.694V15.736H139.654V30.568C139.654 34.536 140.518 36.52 142.246 36.52C142.918 36.52 143.542 36.312 144.118 35.896C144.694 35.448 145.142 35.016 145.462 34.6C145.782 34.152 146.006 33.928 146.134 33.928C146.262 33.928 146.326 34.008 146.326 34.168C146.326 34.296 146.278 34.456 146.182 34.648C145.222 36.536 143.462 37.48 140.902 37.48C138.854 37.48 137.334 36.696 136.342 35.128C135.35 33.56 134.854 31.464 134.854 28.84V15.736H130.438Z" stroke="black" stroke-width="2" mask="url(#path-1-outside-1_1_1591)"/>
</g>
<defs>
<filter id="filter0_d_1_1591" x="0.0720215" y="0" width="151.254" height="50.3199" filterUnits="userSpaceOnUse" color-interpolation-filters="sRGB">
<feFlood flood-opacity="0" result="BackgroundImageFix"/>
<feColorMatrix in="SourceAlpha" type="matrix" values="0 0 0 0 0 0 0 0 0 0 0 0 0 0 0 0 0 0 127 0" result="hardAlpha"/>
<feOffset dy="4"/>
<feGaussianBlur stdDeviation="2"/>
<feComposite in2="hardAlpha" operator="out"/>
<feColorMatrix type="matrix" values="0 0 0 0 0 0 0 0 0 0 0 0 0 0 0 0 0 0 0.25 0"/>
<feBlend mode="normal" in2="BackgroundImageFix" result="effect1_dropShadow_1_1591"/>
<feBlend mode="normal" in="SourceGraphic" in2="effect1_dropShadow_1_1591" result="shape"/>
</filter>
</defs>
</svg>
