<svg width="12" height="12" viewBox="0 0 12 12" fill="none" xmlns="http://www.w3.org/2000/svg">
<path d="M6.44053 11.0068L6.44053 6.79755H10.5595C10.8027 6.79755 11 6.59596 11 6.34737C11 6.09878 10.8027 5.89718 10.5595 5.89718H6.44053V1.68798C6.44053 1.43938 6.24326 1.23779 6 1.23779C5.75674 1.23779 5.55947 1.43938 5.55947 1.68798V5.89718L1.44053 5.89718C1.19727 5.89718 1 6.09878 1 6.34737C1 6.59596 1.19727 6.79755 1.44053 6.79755L5.55947 6.79755L5.55947 11.0068C5.55947 11.2553 5.75674 11.4569 6 11.4569C6.24326 11.4569 6.44053 11.2553 6.44053 11.0068" stroke="#1EA4CE"/>
</svg>
